<svg width="26" height="26" viewBox="0 0 26 26" fill="none" xmlns="http://www.w3.org/2000/svg">
<path d="M1.93038 12.6379C1.70634 12.5088 1.41978 12.5854 1.29054 12.8094C0.942788 13.4118 0.660089 14.0042 0.45021 14.5702C0.360226 14.8128 0.483929 15.0823 0.726511 15.1722C0.780238 15.1922 0.835183 15.2016 0.889265 15.2016C1.07954 15.2016 1.25855 15.0848 1.32862 14.8959C1.52017 14.3791 1.78037 13.8347 2.10182 13.2778C2.23116 13.0538 2.15443 12.7673 1.93038 12.6379Z" fill="white"/>
<path d="M16.4397 9.07804C16.2427 8.91026 15.9472 8.93422 15.7793 9.1312C15.3963 9.58163 15.0324 10.1069 14.6671 10.737C14.5374 10.9608 14.6137 11.2474 14.8375 11.3771C14.9115 11.42 14.9922 11.4403 15.072 11.4403C15.2336 11.4403 15.3908 11.3566 15.4777 11.2067C15.8144 10.6258 16.1465 10.1455 16.493 9.73834C16.6606 9.54131 16.6367 9.24572 16.4397 9.07804Z" fill="white"/>
<path d="M17.1978 2.68128C17.1537 2.42626 16.9111 2.25518 16.6565 2.29946C16.0358 2.40661 15.406 2.54773 14.7844 2.71881C14.535 2.78742 14.3884 3.04523 14.4571 3.29472C14.5143 3.50252 14.7029 3.63897 14.9085 3.63897C14.9495 3.63897 14.9914 3.63353 15.033 3.62206C15.6253 3.45905 16.2252 3.32468 16.8159 3.22261C17.0708 3.17853 17.2418 2.93621 17.1978 2.68128Z" fill="white"/>
<path d="M14.4153 12.2124C14.1801 12.1049 13.9021 12.2085 13.7946 12.4439C13.5531 12.9726 13.3057 13.5619 13.0595 14.1952C12.9657 14.4364 13.0851 14.7079 13.3262 14.8016C13.382 14.8233 13.4394 14.8336 13.4959 14.8336C13.6834 14.8336 13.8605 14.7202 13.9325 14.5349C14.1724 13.9182 14.4127 13.3457 14.6468 12.8332C14.7543 12.5978 14.6506 12.3198 14.4153 12.2124Z" fill="white"/>
<path d="M11.7953 19.2265C11.5596 19.1209 11.2822 19.2266 11.1764 19.4628C10.913 20.0512 10.6234 20.578 10.3156 21.0285C10.1697 21.2421 10.2245 21.5336 10.4381 21.6796C10.5189 21.7348 10.6109 21.7612 10.7019 21.7612C10.8516 21.7612 10.9985 21.6899 11.0892 21.5571C11.4284 21.0606 11.7455 20.4847 12.0316 19.8455C12.1373 19.6093 12.0315 19.3322 11.7953 19.2265Z" fill="white"/>
<path d="M10.1504 5.12096C10.021 4.89687 9.73449 4.82024 9.51049 4.94958C8.96464 5.26488 8.42098 5.6075 7.89468 5.96789C7.68115 6.11404 7.62661 6.40558 7.77276 6.61901C7.86355 6.75155 8.01041 6.82285 8.15976 6.82285C8.25091 6.82285 8.34308 6.79624 8.42392 6.74084C8.93067 6.3939 9.45387 6.06418 9.9791 5.76081C10.2032 5.63147 10.2798 5.34496 10.1504 5.12096Z" fill="white"/>
<path d="M13.0052 15.6808C12.7608 15.5959 12.4939 15.7255 12.4092 15.9699C12.2159 16.5272 12.0161 17.1291 11.8154 17.7587C11.7367 18.0052 11.8728 18.2687 12.1193 18.3473C12.1666 18.3623 12.2146 18.3696 12.2618 18.3696C12.4602 18.3696 12.6444 18.2425 12.7079 18.0434C12.9064 17.4212 13.1037 16.8268 13.2943 16.2769C13.379 16.0324 13.2496 15.7655 13.0052 15.6808Z" fill="white"/>
<path d="M25.622 4.75468C25.5168 4.51819 25.2454 4.41206 25.0094 4.51708C24.773 4.62229 24.6581 4.89915 24.7633 5.13549C24.9679 5.59552 25.0632 6.13979 25.0632 6.75333V6.771C25.0632 7.02968 25.2729 7.23941 25.5316 7.23941C25.7903 7.23941 26 7.02968 26 6.771V6.75333C26 6.00776 25.8803 5.33531 25.622 4.75468Z" fill="white"/>
<path d="M25.4195 8.1699C25.168 8.10927 24.915 8.26385 24.8542 8.51516C24.7234 9.05614 24.5364 9.63509 24.2983 10.2359C24.203 10.4764 24.3207 10.7487 24.5612 10.844C24.6178 10.8664 24.6763 10.8771 24.7337 10.8771C24.9201 10.8771 25.0964 10.7649 25.1693 10.5811C25.4234 9.93968 25.6237 9.31868 25.7647 8.7353C25.8256 8.48383 25.671 8.23069 25.4195 8.1699Z" fill="white"/>
<path d="M19.7736 7.5894C19.7454 7.33224 19.513 7.1476 19.2568 7.17507C18.5399 7.25399 17.902 7.46234 17.3063 7.81202C17.0831 7.94304 17.0085 8.23005 17.1396 8.45313C17.2268 8.60172 17.3833 8.68449 17.5439 8.68449C17.6244 8.68449 17.7061 8.66367 17.7807 8.62C18.2601 8.33852 18.7764 8.17049 19.3593 8.10635C19.6165 8.07801 19.802 7.8466 19.7736 7.5894Z" fill="white"/>
<path d="M23.9391 13.1242C24.0697 12.8949 24.2163 12.6277 24.3705 12.3287C24.4891 12.0988 24.3988 11.8163 24.1689 11.6977C23.9395 11.5793 23.6566 11.6692 23.538 11.8993C23.2583 12.4416 23.0013 12.8803 22.832 13.1573C18.8064 16.0733 20.1934 18.9778 20.2563 19.1038C20.3714 19.3338 20.6492 19.4262 20.8802 19.3132C21.1112 19.2002 21.207 18.9202 21.096 18.6883C21.0511 18.5947 20.1094 16.5242 22.9977 14.2087C23.0041 14.2089 23.0106 14.2101 23.017 14.2101C23.1358 14.2101 23.2526 14.1642 23.3411 14.0792C23.6654 14.9229 24.111 16.6407 23.5038 18.7656C23.4327 19.0144 23.5768 19.2737 23.8255 19.3446C23.8685 19.357 23.9117 19.3628 23.9544 19.3628C24.1582 19.3628 24.3457 19.2287 24.4045 19.0229C25.2928 15.9144 24.2004 13.6102 23.9391 13.1242Z" fill="white"/>
<path d="M24.2925 3.1409C23.7833 2.78401 23.1577 2.50984 22.4328 2.32596C22.182 2.26248 21.9272 2.41427 21.8636 2.66487C21.8 2.91563 21.9517 3.17045 22.2025 3.23408C22.8168 3.38988 23.3391 3.61662 23.7548 3.908C23.8367 3.96533 23.9304 3.9929 24.0232 3.9929C24.1709 3.9929 24.3161 3.92333 24.4072 3.79328C24.5557 3.58148 24.5043 3.28933 24.2925 3.1409Z" fill="white"/>
<path d="M1.22627 18.2278C1.12496 17.9454 1.04625 17.6659 0.992418 17.3971C0.955602 17.2125 0.936863 17.0123 0.936863 16.8031C0.936965 16.7296 0.93925 16.6549 0.943617 16.5794C0.958598 16.3211 0.761414 16.0995 0.503191 16.0845C0.243141 16.0675 0.0233594 16.2667 0.00832812 16.5249C0.00294531 16.618 0.000101563 16.7111 0 16.8024C0 17.0739 0.024832 17.3359 0.0738867 17.5808C0.136652 17.8946 0.227703 18.2189 0.344602 18.5443C0.413207 18.7355 0.593328 18.8546 0.785484 18.8546C0.837992 18.8546 0.891465 18.8456 0.943769 18.8269C1.18716 18.7396 1.31366 18.4713 1.22627 18.2278Z" fill="white"/>
<path d="M13.5658 3.58509C13.475 3.34296 13.2049 3.22033 12.9627 3.31127C12.3742 3.53227 11.7818 3.7842 11.2021 4.05994C10.9684 4.1711 10.8691 4.45055 10.9802 4.6842C11.0605 4.85289 11.2285 4.95151 11.4036 4.95151C11.4709 4.95151 11.5394 4.93688 11.6044 4.90601C12.1604 4.64154 12.7283 4.40008 13.292 4.18832C13.5342 4.09732 13.6569 3.82726 13.5658 3.58509Z" fill="white"/>
<path d="M4.23798 9.68789C4.04608 9.51447 3.75003 9.52915 3.5763 9.7211C3.13715 10.2066 2.72658 10.7046 2.35598 11.2012C2.20125 11.4085 2.24391 11.702 2.45125 11.8568C2.53539 11.9195 2.63365 11.9498 2.7311 11.9498C2.87385 11.9498 3.01482 11.8848 3.10688 11.7615C3.45991 11.2884 3.85159 10.8134 4.2712 10.3495C4.44461 10.1577 4.42973 9.86141 4.23798 9.68789Z" fill="white"/>
<path d="M23.1255 7.66479C22.4063 7.46898 21.7914 7.33298 21.2455 7.24884C20.9897 7.20882 20.7506 7.38473 20.7112 7.64041C20.6718 7.89615 20.8471 8.13533 21.1028 8.17468C21.6134 8.25345 22.1946 8.38228 22.8794 8.56864C22.9206 8.57987 22.962 8.58525 23.0027 8.58525C23.2089 8.58525 23.3977 8.44819 23.4544 8.23979C23.5223 7.99014 23.3751 7.73268 23.1255 7.66479Z" fill="white"/>
<path d="M9.81688 22.3841C9.65539 22.1824 9.36071 22.1496 9.1584 22.3111C8.69806 22.6796 8.20198 22.926 7.68406 23.0435C7.43178 23.1008 7.2736 23.3517 7.33078 23.604C7.38019 23.8214 7.57336 23.9689 7.7872 23.9689C7.82153 23.9689 7.85636 23.9651 7.89125 23.9572C8.54861 23.8081 9.17185 23.5003 9.7439 23.0425C9.94586 22.8809 9.97846 22.5862 9.81688 22.3841Z" fill="white"/>
<path d="M20.491 2.05014C19.8873 2.0188 19.2162 2.02703 18.564 2.07055C18.3058 2.08776 18.1106 2.311 18.1278 2.56912C18.1442 2.81663 18.3502 3.00635 18.5947 3.00635C18.6051 3.00635 18.6157 3.00599 18.6262 3.00533C19.2421 2.96415 19.8756 2.95633 20.4425 2.98573C20.7024 2.99959 20.9212 2.80048 20.9346 2.54221C20.948 2.28378 20.7493 2.06349 20.491 2.05014Z" fill="white"/>
<path d="M7.01934 7.17828C6.8575 6.97647 6.56271 6.94408 6.36086 7.10602C5.86259 7.50567 5.37702 7.92679 4.9174 8.35762C4.7287 8.53454 4.7192 8.83101 4.89612 9.01971C4.98829 9.11807 5.11296 9.16774 5.23793 9.16774C5.35275 9.16774 5.46777 9.12579 5.55826 9.04104C6.00026 8.62661 6.46755 8.22143 6.94708 7.83676C7.14893 7.67487 7.18128 7.38003 7.01934 7.17828Z" fill="white"/>
<path d="M6.04352 23.0132C5.52463 22.8865 4.99768 22.654 4.47712 22.322C4.25901 22.1829 3.96925 22.2472 3.83027 22.4652C3.69123 22.6833 3.75526 22.9729 3.97347 23.1121C4.58081 23.4993 5.20248 23.7723 5.8212 23.9233C5.85862 23.9325 5.896 23.9368 5.93271 23.9368C6.14361 23.9368 6.33515 23.7934 6.38741 23.5795C6.4488 23.3281 6.29473 23.0745 6.04352 23.0132Z" fill="white"/>
<path d="M3.11773 21.2017C2.70671 20.7782 2.3354 20.3093 2.01416 19.8081C1.87441 19.5901 1.58475 19.5268 1.367 19.6664C1.14915 19.806 1.08577 20.0958 1.22532 20.3135C1.58043 20.8675 1.99095 21.3859 2.44554 21.8542C2.53736 21.9488 2.65948 21.9963 2.78166 21.9963C2.89922 21.9963 3.01688 21.9523 3.10793 21.864C3.29349 21.6838 3.29796 21.3873 3.11773 21.2017Z" fill="white"/>
</svg>
