<svg width="398" height="415" viewBox="0 0 398 415" fill="none" xmlns="http://www.w3.org/2000/svg">
<path d="M379.593 183.989C385.636 177.643 388.599 162.263 381.859 163.708C375.981 164.362 377.245 178.226 377.344 174.978C377.368 174.163 379.183 169.335 380.882 168.568C381.744 167.778 383.394 168.64 384.183 170.284C384.872 175.177 380.546 179.942 379.593 183.989Z" fill="#E2BE7F"/>
<path d="M380.012 200.072C380.168 197.27 380.119 194.987 379.856 193.215C379.602 191.268 379.117 190.19 378.592 189.983C376.974 189.719 376.063 190.023 375.644 190.877C375.053 191.723 374.618 193.104 374.15 195.011C373.699 196.743 373.025 198.994 371.975 201.572C371.104 204.158 369.495 207.055 367.164 210.096C365.193 212.978 362.919 214.957 360.497 216.234C358.075 217.511 355.489 218.429 352.92 219.171C350.35 219.914 347.608 220.464 344.677 221.191C341.755 221.741 338.807 222.811 335.655 224.224C328.561 228.414 322.281 234.057 316.641 241.129C311.009 248.2 305.714 255.655 300.919 263.82C296.133 271.818 291.527 279.831 287.455 288.044C283.202 296.066 278.999 303.393 274.853 309.674C270.88 316.131 266.619 321.176 262.259 324.815C257.908 328.447 253.302 329.963 248.295 329.165C242.219 327.96 238.041 325.103 235.766 320.593C233.673 315.924 233.065 310.792 233.583 304.845C234.092 298.907 235.512 293.009 238.024 286.815C240.347 280.797 242.991 275.665 245.922 271.602C248.098 268.21 248.951 265.967 248.639 265.073C248.163 263.996 247.038 264.634 245.29 266.829C240.224 273.406 236.029 280.558 232.515 288.451C229.19 296.177 227.351 303.105 227.023 309.06C226.826 312.564 226.982 316.251 227.663 320.154C228.172 324.049 229.231 327.617 230.668 331.025C232.097 334.441 234.092 337.53 236.489 339.94C239.067 342.367 242.039 344.099 245.791 344.825C252.744 346.429 259.14 345.184 264.936 341.624C270.921 337.905 276.273 332.741 281.339 326.164C286.396 319.587 291.338 312.117 295.772 303.928C300.213 295.563 304.63 287.717 308.842 280.214C313.061 272.528 317.232 265.903 321.345 260.157C325.466 254.402 329.834 250.595 334.251 249.078C337.264 246.955 340.055 245.527 342.986 244.8C345.744 243.898 348.322 243.148 351.073 242.422C353.815 241.863 356.384 241.121 358.97 240.027C361.729 239.125 364.348 237.505 367.18 235.374C369.257 233.73 371.187 231.551 372.787 228.646C374.397 225.748 375.661 222.651 376.745 219.379C377.656 216.091 378.559 212.794 379.117 209.314C379.675 206.026 380.028 202.881 380.012 200.072Z" fill="#E2BE7F"/>
<path d="M361.261 109.816C360.793 109.473 360.317 109.449 359.635 110.04C356.294 112.362 352.953 114.685 349.751 117.175C346.721 119.673 343.364 122.148 339.998 124.782C336.804 127.264 333.126 129.882 329.284 132.34C325.45 134.79 320.984 137.049 316.189 139.3C313.07 140.537 309.769 141.926 306.329 143.155C302.725 144.368 299.285 145.438 296.018 146.515C292.594 147.425 289.475 148.511 286.7 149.301C283.753 150.235 281.462 151.049 279.804 151.751C276.019 153.427 272.866 155.135 270.502 157.195C267.973 159.246 266.085 161.345 264.698 163.301C263.13 165.408 262.218 167.387 261.471 169.223C260.872 171.218 260.461 172.918 260.215 174.315C259.903 177.109 260.232 179.782 261.373 182.345C262.366 184.739 264.016 186.71 266.028 188.219C268.203 189.584 270.559 190.494 273.449 190.645C276.331 190.797 279.426 190.023 282.431 188.147C286.068 186.311 288.81 183.326 290.46 179.663C292.118 175.999 292.98 171.984 293.202 167.93C293.243 167.156 293.112 166.677 292.816 166.19C292.521 165.703 291.872 165.831 290.87 166.557C290.164 167.611 288.949 169.271 287.373 171.522C285.641 173.772 283.769 175.552 281.946 176.55C280.452 177.404 278.827 177.787 277.045 178.011C275.255 178.386 273.49 178.29 271.898 178.05C270.305 177.659 269.057 177.125 267.973 176.438C266.898 175.6 266.323 174.315 266.405 172.918C266.537 170.58 267.612 168.608 269.796 166.844C271.824 165.072 273.835 163.62 275.674 162.462C277.833 161.169 280.797 159.924 284.557 158.719C288.161 157.506 292.25 156.317 296.675 154.832C301.083 153.507 305.664 152.182 310.41 150.714C315.155 149.245 319.596 147.449 323.726 145.478C321.049 150.187 318.677 155.215 316.288 160.555C313.907 165.743 311.674 171.091 309.465 176.127C307.249 181.323 304.876 186.351 302.676 191.236C300.484 195.969 298.152 200.215 295.542 203.831C293.087 207.446 290.509 210.44 287.66 212.475C284.803 214.67 281.856 215.604 278.654 215.436V215.46C277.259 215.348 276.093 214.941 275.247 214.159C274.172 213.321 273.269 212.18 272.538 210.887C271.816 209.442 271.249 208.005 270.699 206.417C270.305 204.837 269.747 203.4 269.024 201.955C268.138 200.503 267.243 199.361 266.011 198.356C264.78 197.358 263.195 196.951 261.118 196.847C258.072 196.687 255.412 198.268 252.966 201.732C250.363 205.188 247.859 209.586 245.298 215.236C242.72 221.039 239.789 227.448 236.817 234.632C233.829 241.975 230.2 249.437 225.915 257.028C221.785 264.778 216.703 272.169 210.989 279.528C205.284 286.727 198.486 293.24 190.613 298.915C182.74 304.59 173.487 309.1 163.159 312.619C152.684 315.972 140.541 317.512 127.053 317.265C118.851 317.297 111.224 315.644 104.172 312.452C96.9558 309.259 90.9298 305.029 85.7658 299.602C83.738 297.399 81.9073 295.012 80.2735 292.474C79.8548 292.889 79.4361 293.288 79.0256 293.719C76.0455 296.784 73.0407 300.264 69.8553 304.183C71.5547 307.415 73.484 310.504 75.6678 313.442C81.1848 321.08 88.2205 327.393 96.7915 332.222C105.207 337.043 114.861 339.589 125.78 339.853C140.706 340.331 154.334 338.089 166.172 333.244C178.183 328.415 188.995 321.798 198.469 313.394C207.944 304.989 216.359 295.276 223.591 283.942C230.808 272.76 237.096 260.899 242.769 248.703C243.714 246.101 245.011 243.036 246.341 239.357C247.687 235.518 249.329 232.014 250.971 228.51C252.457 224.99 254.222 222.117 256.135 219.562C258.04 217.168 260.035 216.019 262.112 216.13C263.712 216.218 264.936 217.376 265.453 219.586C266.134 221.805 266.964 224.2 267.776 226.898C268.745 229.603 269.894 232.165 271.536 234.44C272.825 236.42 274.779 237.721 277.374 238.231L277.365 238.343C277.521 238.335 277.677 238.311 277.833 238.303C278.071 238.343 278.293 238.383 278.539 238.407L278.548 238.239C283.695 237.744 288.219 236.028 291.962 233.179C295.985 230.266 299.589 226.235 302.421 221.542C305.426 216.697 307.98 211.365 310.089 205.228C312.355 199.249 314.629 193.12 316.912 186.838C319.194 180.549 321.624 174.427 324.218 168.321C326.977 162.215 330.171 156.756 334.152 151.807C335.195 150.458 336.566 148.966 338.265 147.186C339.973 145.398 341.837 143.618 343.881 141.702C345.909 139.931 347.945 138.015 350.128 136.251C352.32 134.495 354.34 132.883 356.351 131.43C356.524 131.279 357.025 130.84 357.87 130.257C358.535 129.826 359.069 128.908 359.291 127.83C359.611 125.037 359.914 122.555 360.202 120.224L361.433 112.634C361.663 111.237 361.556 110.295 361.261 109.816Z" fill="#E2BE7F"/>
<path d="M72.269 263.828C71.8667 259.901 71.8913 255.839 72.3675 251.64C75.3395 207.279 121.922 188.913 155.212 168.536C115.822 178.17 76.8254 204.749 64.0592 242.956C63.2383 246.149 62.6061 249.485 62.171 252.973C60.8656 262.479 61.35 271.93 63.4681 281.052C66.4565 277.612 69.7732 274.116 73.4266 270.549C72.9011 268.362 72.4989 266.119 72.269 263.828Z" fill="#E2BE7F"/>
<path d="M80.4049 289.888C83.7298 286.576 87.0384 283.702 90.3223 281.092C93.8525 278.315 97.3663 275.84 100.864 273.837C104.353 271.834 107.669 269.982 111.134 268.29C113.622 267.021 116.741 265.776 120.337 264.714C123.941 263.501 127.545 262.288 131.002 260.907C134.45 259.526 137.766 257.826 140.911 256.126C143.907 254.25 146.296 251.88 148.053 249.158C150.188 245.519 151.863 241.392 152.93 236.603C153.997 231.974 154.588 227.161 154.867 222.172C154.917 221.239 154.621 220.911 153.817 220.864C153.02 220.824 151.871 221.231 150.549 221.781C149.219 222.492 147.733 223.354 145.894 224.503C144.228 225.509 142.397 226.666 140.402 227.807C138.39 229.26 136.067 230.545 133.432 231.655C130.805 232.612 128.391 232.788 126.018 232.046C125.386 231.854 124.59 231.655 123.966 231.311C123.498 231.048 122.997 230.88 122.455 230.729C122.833 228.127 123.908 225.78 125.69 223.585C127.603 221.023 130.156 218.509 133.341 216.178C136.363 213.84 139.712 211.517 143.218 209.202C146.723 206.888 150.081 204.406 153.267 201.923C156.296 199.425 159.178 196.767 161.443 193.766C163.693 190.917 165.327 187.564 166 184.156C168.455 191.946 170.745 199.88 172.871 207.806C174.834 215.723 177.912 223.857 181.951 232.046C183.536 235.254 185.153 238 187.124 240.131C188.93 242.254 190.917 244.082 193.1 245.295C195.112 246.652 197.312 247.554 199.529 248.136C200.9 248.496 202.213 248.783 203.551 248.991L203.543 249.126C203.707 249.11 203.863 249.078 204.019 249.054C204.692 249.142 205.366 249.222 206.055 249.254L206.088 248.735C211.03 247.769 215.447 245.511 219.232 241.831C223.649 237.537 227.163 232.253 229.913 226.299C232.507 220.185 234.322 213.56 235.348 206.736C236.218 199.752 236.259 193.343 235.299 187.517C234.338 181.682 232.515 176.893 229.839 173.158C227.327 169.279 223.723 167.515 219.199 167.906C218.386 168.018 217.672 169.39 217.032 172.168C216.391 174.946 215.743 178.042 215.226 181.451C214.708 184.867 214.216 187.964 213.887 190.917C213.567 193.71 213.313 195.41 213.296 195.73C213.075 196.815 213.378 196.983 214.06 196.4C214.741 195.809 215.447 194.596 216.022 192.904C220.578 194.708 223.673 196.911 225.463 199.345C227.105 201.62 227.926 204.158 227.795 206.497C227.499 208.987 226.555 211.429 224.806 213.991C223.066 216.402 221.013 218.477 218.657 220.385C216.301 222.292 213.805 223.721 211.334 224.846C209.003 225.692 207.082 226.163 205.448 226.195C201.392 225.764 198.215 224.679 195.801 222.923C193.026 220.744 190.793 217.647 189.258 213.513C187.444 208.724 185.375 202.522 183.06 195.051C180.909 187.437 178.462 179.647 175.843 171.857C172.568 161.521 169.087 151.967 165.401 143.171C161.714 134.375 158.291 126.689 155.286 119.969C154.243 118.508 153.308 117.989 152.487 118.261C151.501 118.516 150.795 119.737 150.18 122.044C149.884 124.526 149.424 127.008 149.293 129.339C149.006 131.67 148.71 133.992 148.406 136.642C151.099 143.027 153.349 148.774 155.294 154.194C157.248 159.453 159.194 165.025 161.271 170.915C160.45 174.004 158.857 176.726 156.304 179.248C153.915 181.778 151.042 184.276 147.848 186.774C144.654 189.257 141.297 191.898 137.766 194.524C134.244 197.15 130.854 200.255 127.759 203.839C124.516 207.263 121.872 211.342 119.697 215.755C117.694 220.145 116.282 225.485 115.92 231.495C115.92 231.503 115.92 231.511 115.92 231.511C115.92 231.559 115.912 231.599 115.912 231.647H115.937C116.15 233.498 116.347 235.637 116.676 238.096C117.012 240.77 117.497 243.451 118.162 245.989C109.837 248.2 102.267 251.401 95.6012 255.575C88.7706 259.901 82.7282 264.427 77.3098 269.296C75.9141 270.589 74.5677 271.866 73.2624 273.143C69.609 276.71 66.2923 280.206 63.3039 283.646C63.1972 283.766 63.0823 283.886 62.9837 284.006C58.846 288.946 55.0778 293.121 51.8349 296.545C49.4459 299.075 46.9337 300.815 44.3065 301.773C41.8272 302.89 39.2247 303.528 36.967 303.728C34.5451 303.912 32.3039 303.792 30.391 303.377C28.3303 302.954 26.7541 302.403 25.6704 301.557C22.7395 299.37 20.7938 296.768 19.825 294.062C18.8645 291.197 18.3719 288.515 18.5361 285.554C18.6921 282.752 19.3324 279.975 20.293 277.213C21.4095 274.46 22.6738 272.025 23.9135 269.902C26.2204 265.959 29.5043 261.921 33.9212 257.778C38.5022 253.492 43.2639 248.743 48.5428 243.555C53.8134 238.359 59.1252 232.549 64.4697 226.115C69.9785 219.69 74.5677 212.275 78.5659 204.046C79.1159 202.825 79.666 201.604 79.7481 200.199C79.9944 198.651 80.0601 197.557 79.7809 196.759C79.5018 195.969 79.0174 195.937 78.3524 196.376C77.5315 196.799 76.6284 198.475 75.1917 201.213C71.3823 208.979 66.8095 215.931 61.4732 222.204C55.989 228.326 50.5213 234.129 45.07 239.469C39.4628 244.792 34.3727 249.677 29.4304 254.578C24.6606 259.327 20.8595 264.124 18.1831 268.825C16.3687 272.48 15.0305 276.319 14.3245 280.342C13.4542 284.365 13.3886 288.268 13.8155 292.195C14.2506 295.962 15.3261 299.618 16.8941 303.297C18.4622 306.817 20.5393 309.898 23.2813 312.699C27.7146 316.842 32.0658 319.42 36.1953 320.417C40.4726 321.423 44.5036 321.327 48.2719 320.114C52.0237 319.069 55.5129 317.065 58.7229 314.264C62.0971 311.47 64.8474 308.182 67.4581 304.726C68.3201 303.64 69.1493 302.611 69.9785 301.589C73.1639 297.67 76.1686 294.19 79.1488 291.125C79.5757 290.694 79.9862 290.303 80.4049 289.888Z" fill="#E2BE7F"/>
<path d="M165.639 273.167C165.22 273.143 165.507 271.722 166.082 269.072C166.648 266.43 167.445 263.597 168.471 260.356C169.497 257.124 170.507 254.298 171.5 251.672C172.699 249.062 173.627 247.674 174.267 247.705C174.899 247.737 176.558 248.232 179.07 248.783C181.566 249.533 184.267 250.499 186.943 251.664C189.636 252.838 192.099 254.003 194.151 255.344C196.179 256.892 197.164 258.177 197.09 259.414C197 261.051 196.68 263.094 195.883 265.935C195.095 268.561 194.11 271.187 193.108 273.813C191.902 276.423 190.933 278.634 189.767 280.629C188.601 282.425 187.715 283.199 186.894 282.745C184.209 281.571 180.712 279.943 176.582 277.876C172.683 276 168.964 274.364 165.639 273.167Z" fill="#E2BE7F"/>
<path d="M101.405 367.429C100.987 367.405 101.274 365.984 101.849 363.334C102.415 360.692 103.212 357.859 104.238 354.618C105.264 351.386 106.274 348.56 107.267 345.934C108.466 343.325 109.394 341.936 110.034 341.968C110.666 342 112.324 342.494 114.837 343.045C117.332 343.795 120.033 344.761 122.71 345.927C125.403 347.1 127.865 348.265 129.918 349.606C131.946 351.154 132.931 352.439 132.857 353.677C132.767 355.313 132.447 357.356 131.65 360.198C130.862 362.823 129.877 365.449 128.875 368.075C127.668 370.685 126.7 372.896 125.534 374.892C124.368 376.687 123.481 377.462 122.661 377.007C119.976 375.833 116.479 374.205 112.349 372.138C108.449 370.27 104.73 368.626 101.405 367.429Z" fill="#E2BE7F"/>
<path d="M346.377 188.873C345.326 190.382 344.423 192.21 343.503 194.189C342.584 196.177 341.837 198.164 341.246 200.016C340.819 201.867 340.425 203.097 340.4 203.559C340.375 204.03 341.467 204.709 343.503 205.603C345.547 206.337 347.756 207.079 350.293 207.838C352.821 208.596 355.038 209.186 357.107 209.61C359.167 210.033 360.284 210.248 360.3 209.937C361.245 207.486 362.525 204.741 363.97 201.843C365.588 198.802 366.852 196.216 367.771 194.229C368.124 193.63 367.517 192.968 366.121 192.114C364.561 191.252 362.837 190.534 360.793 189.64C358.749 188.905 356.696 188.171 354.636 187.596C352.419 187.014 350.826 186.766 349.546 186.702C348.585 186.639 347.584 187.373 346.377 188.873Z" fill="#E2BE7F"/>
<path d="M334.021 165.918C332.97 167.427 332.067 169.255 331.148 171.234C330.228 173.222 329.481 175.209 328.89 177.061C328.463 178.912 328.069 180.142 328.044 180.605C328.02 181.075 329.112 181.754 331.148 182.648C333.192 183.382 335.4 184.124 337.937 184.883C340.466 185.641 342.682 186.232 344.751 186.655C346.812 187.078 347.928 187.293 347.945 186.982C348.889 184.531 350.17 181.786 351.614 178.889C353.232 175.848 354.496 173.262 355.416 171.274C355.769 170.675 355.161 170.013 353.765 169.159C352.206 168.297 350.482 167.579 348.437 166.685C346.393 165.95 344.341 165.216 342.28 164.641C340.063 164.059 338.471 163.811 337.19 163.748C336.229 163.692 335.228 164.426 334.021 165.918Z" fill="#E2BE7F"/>
<path d="M104.903 129.722C129.598 125.516 152.979 117.686 172.338 101.89C188.051 89.0721 201.909 74.2344 213.928 57.9281C220.127 52.317 223.591 44.0481 233.566 38.3333C228.772 54.3763 218.173 64.3452 211.687 76.5011C197.46 94.4038 184.743 113.312 171.927 133.434C171.583 122.778 177.223 115.236 181.27 107.158C181.779 106.185 182.288 105.227 182.797 104.261C181.27 103.511 181.172 105.051 180.465 105.626C160.713 118.987 140.246 130.975 116.667 136.985C100.987 139.508 85.3554 140.848 67.9589 134.902C81.5953 132.915 93.4995 132.859 104.903 129.722Z" fill="#E2BE7F"/>
<path d="M270.798 72.6221C269.755 71.3371 268.917 70.2516 267.637 69.5891C266.578 68.9266 265.502 68.6872 264.632 68.6632C263.762 68.6393 263.105 69.0464 262.645 69.8764C262.407 70.499 262.374 71.5446 262.99 72.8376C263.811 74.3301 265.042 76.8922 266.66 80.5158C268.515 83.932 269.919 87.5476 271.11 91.3708C271.873 94.7629 272.645 98.1551 272.973 101.747C273.515 105.338 273.203 108.699 272.029 111.827C271.561 113.073 270.683 113.687 269.582 114.078C268.499 114.262 267.653 113.392 266.84 111.684C266.438 110.415 266.052 109.138 265.658 107.861C265.264 106.376 264.87 105.107 264.263 103.822C263.655 102.321 262.818 101.252 261.775 99.9589C260.946 98.6659 259.46 97.5804 257.752 96.6865C257.317 96.878 257.087 97.3011 256.652 97.5006C255.774 97.8917 254.903 98.0832 254.255 98.0673C251.004 97.9795 248.869 97.0776 247.416 94.9305C246.168 92.999 245.577 91.0914 245.848 89.1998C246.587 86.2705 247.712 84.8339 249.452 84.4587C250.971 84.2911 252.703 84.339 254 84.794C256.562 85.9194 258.688 87.2363 260.371 88.9763C262.276 90.7163 263.737 92.4403 264.985 94.1563C266.446 96.0958 267.67 98.4424 268.696 100.581C268.762 98.4823 268.384 96.3672 267.588 94.2282C266.791 91.8896 265.765 89.7585 264.747 87.6274C263.721 85.4963 262.694 83.5648 261.455 81.6413C260.215 79.7097 259.394 78.0096 258.581 76.2936C258.179 75.0245 257.801 73.3245 257.645 71.2173C257.49 69.3177 257.76 67.2186 258.253 65.3349C258.737 63.4593 259.435 61.7911 260.56 60.3465C261.463 59.1093 262.998 58.3112 264.739 58.3591C267.768 58.4468 270.108 59.9793 272.193 62.7729C274.065 65.3509 274.837 68.5355 274.508 72.3188C274.475 73.5799 274.032 73.9949 272.948 73.7475C271.857 73.7076 271.216 73.2606 270.798 72.6221Z" fill="#E2BE7F"/>
<path d="M253.204 126.075C254.6 125.348 256.8 124.263 259.599 122.81C262.588 121.557 265.584 120.112 269.172 118.484C272.554 117.047 276.15 115.427 279.935 113.807C283.514 112.187 286.913 110.75 289.91 109.297C293.095 108.044 295.681 106.775 297.873 105.889C300.074 104.796 301.272 104.261 301.666 104.085C302.668 103.535 303.267 103.367 303.448 103.559C303.637 103.758 303.628 104.141 303.407 105.091C302.98 106.416 302.553 107.549 302.134 108.308C301.724 109.058 301.51 109.441 301.305 109.625C301.108 109.808 299.901 110.542 297.512 111.628C295.312 112.721 292.521 113.983 289.327 115.419C285.936 117.047 282.349 118.668 278.351 120.48C274.566 122.092 270.773 123.904 266.988 125.524C263.392 127.336 260.002 128.964 257.202 130.417C254.206 131.861 252.211 132.955 251.004 133.881C251.242 132.548 251.464 131.406 251.702 130.265C251.931 129.315 252.145 128.365 252.367 127.607C252.596 126.825 252.81 126.258 253.204 126.075Z" fill="#E2BE7F"/>
<path d="M370.809 135.046C362.139 145.382 359.816 167.291 370.76 165.152C377.5 163.708 374.749 143.291 374.602 148.168C374.552 149.796 373.526 156.277 370.136 157.809C369.274 158.599 366.794 157.713 366.023 155.255C363.716 148.686 369.783 141.527 370.809 135.046Z" fill="#E2BE7F"/>
<path d="M210.579 316.682C201.909 327.018 199.586 348.928 210.53 346.789C217.27 345.344 214.52 324.927 214.372 329.804C214.323 331.432 213.296 337.913 209.906 339.445C209.044 340.236 206.564 339.35 205.793 336.891C203.486 330.323 209.553 323.163 210.579 316.682Z" fill="#E2BE7F"/>
<path d="M141.239 146.795C136.051 152.35 134.836 165.336 140.738 163.867C145.779 163.197 143.604 151.743 143.53 154.178C143.505 154.992 142.553 159.03 140.853 159.797C139.991 160.587 139.179 159.749 138.39 158.105C136.822 154.816 140.287 150.841 141.239 146.795Z" fill="#E2BE7F"/>
<path d="M255.142 296.816C249.953 302.371 248.738 315.357 254.641 313.889C259.682 313.218 257.506 301.765 257.432 304.199C257.407 305.013 256.455 309.052 254.756 309.818C253.894 310.608 253.081 309.77 252.293 308.126C250.725 304.829 254.189 300.855 255.142 296.816Z" fill="#E2BE7F"/>
<path d="M180.802 136.036C175.613 141.591 174.398 154.577 180.301 153.108C185.342 152.438 183.166 140.984 183.093 143.418C183.068 144.233 182.116 148.271 180.416 149.038C179.554 149.828 178.741 148.99 177.953 147.345C176.377 144.057 179.842 140.082 180.802 136.036Z" fill="#E2BE7F"/>
<path d="M245.175 182.432C239.986 187.987 238.771 200.973 244.674 199.505C249.715 198.834 247.539 187.381 247.465 189.815C247.441 190.629 246.488 194.668 244.789 195.434C243.927 196.224 243.114 195.386 242.326 193.742C240.75 190.446 244.214 186.471 245.175 182.432Z" fill="#E2BE7F"/>
<path d="M281.7 128.365C276.512 133.92 275.297 146.906 281.199 145.438C286.24 144.767 284.065 133.314 283.991 135.748C283.966 136.562 283.014 140.601 281.314 141.367C280.452 142.157 279.639 141.319 278.851 139.675C277.275 136.387 280.74 132.412 281.7 128.365Z" fill="#E2BE7F"/>
<path d="M325.91 199.736C320.721 205.292 319.506 218.277 325.409 216.809C330.45 216.138 328.274 204.685 328.2 207.119C328.176 207.933 327.223 211.972 325.524 212.738C324.662 213.528 323.849 212.69 323.061 211.046C321.493 207.75 324.957 203.783 325.91 199.736Z" fill="#E2BE7F"/>
<path d="M37.9276 266.662C29.2745 276.184 26.9593 298.093 37.0656 295.938C44.6432 294.517 41.8683 274.915 41.7451 278.977C41.6959 280.605 39.8322 287.063 37.279 288.619C35.555 290.199 33.1002 288.499 32.3285 286.041C29.9969 280.278 36.064 273.119 37.9276 266.662Z" fill="#E2BE7F"/>
<path d="M112.012 297.415C118.055 291.069 121.019 275.689 114.278 277.133C108.4 277.788 109.664 291.652 109.763 288.403C109.788 287.589 111.602 282.76 113.301 281.994C114.163 281.204 115.814 282.066 116.602 283.71C117.291 288.611 112.965 293.376 112.012 297.415Z" fill="#E2BE7F"/>
<path d="M296.634 253.819C302.676 247.474 305.64 232.094 298.9 233.538C293.021 234.193 294.286 248.057 294.384 244.808C294.409 243.994 296.223 239.165 297.923 238.399C298.785 237.609 300.435 238.471 301.223 240.115C301.921 245.008 297.594 249.773 296.634 253.819Z" fill="#E2BE7F"/>
<path d="M145.147 270.74C137.331 280.286 134.992 303.01 145.098 300.847C152.7 298.62 149.925 279.009 148.94 283.862C148.915 284.676 147.889 291.157 145.311 293.528C143.612 294.294 141.157 292.602 140.385 290.135C138.054 284.381 144.121 277.221 145.147 270.74Z" fill="#E2BE7F"/>
<path d="M300.771 135.94C322.018 125.133 328.775 122.882 344.373 104.596C345.162 106.248 346.812 107.102 348.462 107.964C352.788 103.199 351.114 103.152 347.05 98.9772C351.853 77.9538 336.681 81.6013 334.579 96.1916C337.017 98.6978 339.456 101.212 341.081 102.88C328.997 115.563 314.49 124.925 300.771 135.94Z" fill="#E2BE7F"/>
<path d="M167.822 246.971C176.689 230.13 177.017 218.748 160.647 206.09C160.549 209.346 160.458 212.595 160.36 215.851C172.576 227.576 169.924 232.381 167.822 246.971Z" fill="#E2BE7F"/>
<path d="M103.671 230.178C105.346 230.226 106.208 229.436 106.159 231.064C106.134 231.878 88.1303 246.843 85.4949 250.834C99.821 247.163 112.628 238.567 110.576 223.05C109.837 219.778 108.236 217.288 104.008 218.796C97.2185 221.861 95.5026 223.442 87.9579 224.048C87.8347 228.111 87.7444 231.367 86.7839 235.406C96.7916 236.499 96.8408 234.871 103.671 230.178Z" fill="#E2BE7F"/>
<path d="M22.7805 243.555C35.4071 234.336 65.7833 217.104 63.854 195.235C63.5666 191.994 61.6127 188.889 58.6161 183.422C57.6392 181.874 57.4996 180.253 59.2319 180.924C61.0462 182.408 61.2597 184.835 63.7555 184.627C65.2825 182.863 65.3482 183.677 65.1347 181.243C63.3696 170.779 47.065 176.223 57.4421 189.233C60.2253 192.266 62.2531 196.177 60.726 197.94C60.7999 198.755 59.823 197.198 58.9117 196.456C56.8839 192.545 55.0038 190.246 52.2864 188.027C50.4721 186.543 49.569 185.809 47.9845 186.75C45.5544 187.772 45.8418 191.013 46.9583 194.181C48.9122 197.286 53.2141 198.555 54.5277 194.365C56.4077 196.655 60.9395 200.359 59.4125 202.123C49.4048 221.741 35.0459 230.29 22.7805 243.555Z" fill="#E2BE7F"/>
<path d="M272.768 276.687C275.124 272.416 275.247 268.082 274.393 259.382C274.459 257.211 275.633 255.08 276.684 257.275C278.851 259.502 277.636 262.727 280.953 263.9C283.211 262.878 283.186 263.964 283.276 260.715C288.112 247.849 265.921 243.978 269.747 265.76C270.732 270.126 271.66 276.655 268.252 278.73C267.136 278.698 267.202 276.535 267.267 274.364C267.423 268.944 266.438 264.578 264.304 261.266C263.286 257.986 262.235 255.791 259.969 256.812C256.627 256.717 255.412 259.941 255.289 264.275C255.133 269.695 258.343 274.116 262.933 269.91C263.852 276.439 264.492 292.721 272.768 276.687Z" fill="#E2BE7F"/>
<path d="M215.341 154.601C216.728 148.734 214.725 144.336 211.835 135.054C210.833 132.851 210.957 130.169 213.091 131.877C216.859 134.2 216.104 138.478 218.863 138.598C221.752 136.036 221.128 137.624 221.884 133.346C221.523 117.71 196.885 123.066 209.183 144.089C211.186 148.487 214.199 155.088 211.31 157.65C211.31 157.65 210.809 156.548 209.807 154.353C207.295 148.854 205.292 144.456 200.522 139.931C199.52 137.728 197.386 136.02 195.12 136.993C191.729 138.454 191.467 143.834 192.977 147.13C194.356 153.116 199.758 156.053 202.771 150.801C206.917 156.907 213.313 173.9 215.341 154.601Z" fill="#E2BE7F"/>
<path d="M251.981 146.467C251.882 149.716 251.028 150.506 254.32 152.23C254.271 153.858 253.409 154.649 252.555 155.439C252.555 155.439 251.718 155.415 250.043 155.367C249.255 153.715 247.63 152.047 246.817 151.208C245.93 152.813 245.93 152.813 246.718 154.465C247.531 155.303 247.531 155.303 248.344 156.141C248.221 160.204 246.505 161.784 242.326 161.672C240.7 159.996 239.912 158.352 238.287 156.676C238.213 159.118 238.96 162.391 239.724 164.857C244.526 172.312 248.853 167.555 250.692 161.904C260.757 161.361 256.857 151.488 251.981 146.467Z" fill="#E2BE7F"/>
<path d="M98.2693 164.354C98.1708 167.603 97.317 168.393 100.609 170.117C100.56 171.745 99.6978 172.535 98.844 173.325C98.844 173.325 98.0066 173.301 96.3318 173.254C95.5437 171.601 93.9182 169.933 93.1054 169.095C92.2187 170.699 92.2187 170.699 93.0069 172.352C93.8197 173.19 93.8197 173.19 94.6324 174.028C94.5093 178.09 92.7934 179.671 88.6147 179.559C86.9891 177.883 86.201 176.239 84.5755 174.563C84.5016 177.005 85.2487 180.277 86.0122 182.744C90.8149 190.198 95.1414 185.441 96.9804 179.79C107.037 179.248 103.146 169.374 98.2693 164.354Z" fill="#E2BE7F"/>
<path d="M257.194 232.724C255.519 232.676 252.941 235.047 252.867 237.489C252.793 239.931 255.256 241.624 256.931 241.671C260.281 241.767 261.997 240.187 262.07 237.745C262.136 235.302 260.535 232.812 257.194 232.724Z" fill="#E2BE7F"/>
<path d="M216.285 301.166C214.61 301.118 212.032 303.489 211.958 305.931C211.884 308.373 214.347 310.065 216.022 310.113C219.372 310.209 221.087 308.629 221.161 306.186C221.235 303.744 219.626 301.262 216.285 301.166Z" fill="#E2BE7F"/>
<path d="M127.89 297.327C126.215 297.279 123.637 299.649 123.564 302.092C123.49 304.534 125.953 306.226 127.627 306.274C130.977 306.37 132.693 304.79 132.767 302.347C132.832 299.905 131.232 297.423 127.89 297.327Z" fill="#E2BE7F"/>
<path d="M47.5166 253.141C45.8418 253.093 43.2639 255.464 43.19 257.906C43.1161 260.348 45.5791 262.04 47.2539 262.088C50.6034 262.184 52.3193 260.604 52.3932 258.161C52.467 255.719 50.8661 253.237 47.5166 253.141Z" fill="#E2BE7F"/>
<path d="M202.919 197.286C201.244 197.238 198.667 199.609 198.593 202.051C198.519 204.493 200.982 206.185 202.657 206.233C206.006 206.329 207.722 204.749 207.796 202.306C207.87 199.864 206.269 197.374 202.919 197.286Z" fill="#E2BE7F"/>
<path d="M122.037 162.878C120.362 162.83 117.784 165.2 117.71 167.642C117.636 170.085 120.099 171.777 121.774 171.825C125.123 171.921 126.839 170.34 126.913 167.898C126.987 165.456 125.386 162.973 122.037 162.878Z" fill="#E2BE7F"/>
<path d="M78.2539 177.324C76.5792 177.276 75.7171 178.066 75.6761 179.695C75.6515 180.509 76.4642 181.347 78.139 181.387C78.9764 181.411 80.6758 180.644 80.6922 179.83C80.7415 178.202 79.0913 177.348 78.2539 177.324Z" fill="#E2BE7F"/>
<path d="M117.259 200.391C115.584 200.343 114.722 201.133 114.681 202.761C114.656 203.575 115.469 204.414 117.144 204.453C117.981 204.477 119.68 203.711 119.697 202.897C119.738 201.277 118.088 200.415 117.259 200.391Z" fill="#E2BE7F"/>
<path d="M158.242 255.799C156.567 255.751 155.705 256.541 155.664 258.169C155.639 258.983 156.452 259.821 158.127 259.861C158.964 259.885 160.664 259.119 160.68 258.305C160.729 256.685 159.079 255.823 158.242 255.799Z" fill="#E2BE7F"/>
<path d="M51.2684 276.168C49.5936 276.12 48.7316 276.91 48.6906 278.538C48.6659 279.352 49.4787 280.19 51.1535 280.23C51.9909 280.254 53.6903 279.488 53.7067 278.674C53.756 277.054 52.1058 276.192 51.2684 276.168Z" fill="#E2BE7F"/>
<path d="M78.1472 254.546C76.4724 254.498 75.6104 255.288 75.5693 256.916C75.5447 257.73 76.3575 258.568 78.0323 258.608C78.8697 258.632 80.5691 257.866 80.5855 257.052C80.6348 255.424 78.9846 254.57 78.1472 254.546Z" fill="#E2BE7F"/>
<path d="M170.753 293.192C169.079 293.144 168.217 293.935 168.175 295.563C168.151 296.377 168.964 297.215 170.638 297.255C171.476 297.279 173.175 296.513 173.192 295.699C173.241 294.07 171.591 293.216 170.753 293.192Z" fill="#E2BE7F"/>
<path d="M209.109 260.189C207.435 260.141 206.573 260.931 206.531 262.559C206.507 263.373 207.32 264.211 208.994 264.251C209.832 264.275 211.531 263.509 211.548 262.695C211.589 261.075 209.947 260.213 209.109 260.189Z" fill="#E2BE7F"/>
<path d="M224.733 333.818C223.058 333.771 222.196 334.561 222.155 336.189C222.13 337.003 222.943 337.841 224.618 337.881C225.455 337.905 227.154 337.139 227.171 336.325C227.22 334.704 225.57 333.842 224.733 333.818Z" fill="#E2BE7F"/>
<path d="M191.409 333.092C189.734 333.044 188.872 333.834 188.831 335.463C188.807 336.277 189.619 337.115 191.294 337.155C192.132 337.179 193.831 336.412 193.847 335.598C193.897 333.978 192.246 333.116 191.409 333.092Z" fill="#E2BE7F"/>
<path d="M271.282 294.358C269.607 294.31 268.745 295.1 268.704 296.728C268.679 297.542 269.492 298.38 271.167 298.42C272.004 298.444 273.704 297.678 273.72 296.864C273.761 295.236 272.111 294.382 271.282 294.358Z" fill="#E2BE7F"/>
<path d="M313.086 221.43C311.411 221.382 310.549 222.172 310.508 223.801C310.483 224.615 311.296 225.453 312.971 225.493C313.808 225.517 315.508 224.751 315.524 223.936C315.574 222.308 313.923 221.454 313.086 221.43Z" fill="#E2BE7F"/>
<path d="M349.209 148.886C347.534 148.838 346.672 149.628 346.631 151.256C346.607 152.07 347.419 152.909 349.094 152.948C349.931 152.972 351.631 152.206 351.647 151.392C351.697 149.772 350.046 148.91 349.209 148.886Z" fill="#E2BE7F"/>
<path d="M264.024 139.156C262.35 139.108 261.488 139.899 261.447 141.527C261.422 142.341 262.235 143.179 263.91 143.219C264.747 143.243 266.446 142.477 266.463 141.663C266.512 140.042 264.862 139.18 264.024 139.156Z" fill="#E2BE7F"/>
<path d="M302.487 120.2C300.812 120.152 299.95 120.942 299.909 122.571C299.885 123.385 300.697 124.223 302.372 124.263C303.21 124.287 304.909 123.52 304.926 122.706C304.975 121.078 303.325 120.224 302.487 120.2Z" fill="#E2BE7F"/>
<path d="M198.486 113.544C196.811 113.496 195.949 114.286 195.908 115.914C195.883 116.728 196.696 117.566 198.371 117.606C199.208 117.63 200.908 116.864 200.924 116.05C200.973 114.421 199.323 113.567 198.486 113.544Z" fill="#E2BE7F"/>
<path d="M298.924 90.2214C297.249 90.1736 296.387 90.9637 296.346 92.592C296.322 93.4061 297.134 94.2441 298.809 94.2841C299.647 94.308 301.346 93.5418 301.362 92.7277C301.404 91.0994 299.762 90.2454 298.924 90.2214Z" fill="#E2BE7F"/>
<path d="M366.523 174.555C364.849 174.507 363.987 175.297 363.945 176.925C363.921 177.739 364.734 178.577 366.408 178.617C367.246 178.641 368.945 177.875 368.962 177.061C369.011 175.432 367.361 174.57 366.523 174.555Z" fill="#E2BE7F"/>
<path d="M67.6058 323.003C65.9311 322.956 65.069 323.746 65.028 325.374C65.0033 326.188 65.8161 327.026 67.4909 327.066C68.3283 327.09 70.0277 326.324 70.0441 325.51C70.0934 323.889 68.4432 323.027 67.6058 323.003Z" fill="#E2BE7F"/>
<path d="M188.528 171.617C186.853 171.569 185.991 172.36 185.95 173.988C185.925 174.802 186.738 175.64 188.413 175.68C189.25 175.704 190.949 174.938 190.966 174.124C191.015 172.503 189.365 171.641 188.528 171.617Z" fill="#E2BE7F"/>
<path d="M231.711 114.102C230.036 114.054 229.174 114.845 229.133 116.473C229.108 117.287 229.921 118.125 231.596 118.165C232.433 118.189 234.133 117.423 234.149 116.608C234.198 114.98 232.548 114.126 231.711 114.102Z" fill="#E2BE7F"/>
<path d="M96.028 290.263C94.3533 290.215 93.4912 291.005 93.4502 292.634C93.4256 293.448 94.2383 294.286 95.9131 294.326C96.7505 294.35 98.4499 293.583 98.4663 292.769C98.5074 291.149 96.8654 290.287 96.028 290.263Z" fill="#E2BE7F"/>
</svg>
